<?xml version="1.0" encoding="UTF-8"?>
<!DOCTYPE svg PUBLIC "-//W3C//DTD SVG 1.1//EN" "http://www.w3.org/Graphics/SVG/1.1/DTD/svg11.dtd">
<!-- Creator: CorelDRAW 2019 (64-Bit) -->
<svg xmlns="http://www.w3.org/2000/svg" xml:space="preserve" width="64px" height="64px" version="1.1" shape-rendering="geometricPrecision" text-rendering="geometricPrecision" image-rendering="optimizeQuality" fill-rule="evenodd" clip-rule="evenodd"
viewBox="0 0 80000 80000"
 xmlns:xlink="http://www.w3.org/1999/xlink"
 xmlns:xodm="http://www.corel.com/coreldraw/odm/2003">
 <g id="Plan_x0020_1">
  <metadata id="CorelCorpID_0Corel-Layer"/>
  <path fill="black" d="M80000 80000l-80000 0 0 -80000 10000 8750 10000 -8750 10000 8750 10000 -8750 10000 8750 10000 -8750 10000 8750 10000 -8750 0 80000zm-60500 -13740c-3030,0 -5450,-670 -7260,-2010 -1800,-1330 -2710,-3090 -2710,-5270l0 -390c0,-160 60,-300 170,-420 120,-110 260,-170 420,-170l5420 0c160,0 300,40 420,100 110,70 170,150 170,240l0 350c0,710 310,1300 950,1750 630,460 1420,690 2370,690 880,0 1580,-210 2120,-610 540,-410 810,-920 810,-1540 0,-620 -300,-1100 -880,-1440 -590,-340 -1520,-710 -2790,-1100 -940,-260 -1720,-520 -2340,-780 -1950,-650 -3540,-1530 -4760,-2640 -1220,-1110 -1830,-2700 -1830,-4780 0,-2380 860,-4270 2590,-5670 1720,-1400 4000,-2100 6830,-2100 2930,0 5270,730 7010,2180 1740,1440 2610,3370 2610,5780 0,360 -190,540 -580,540l-5230 0c-160,0 -300,-40 -410,-120 -120,-80 -170,-170 -170,-270l0 -340c0,-690 -290,-1260 -860,-1710 -570,-460 -1330,-690 -2270,-690 -880,0 -1590,220 -2120,640 -540,420 -810,940 -810,1560 0,680 330,1210 980,1590 650,370 1640,750 2980,1150 290,90 570,180 850,260 280,90 530,170 760,270 2210,750 3990,1650 5320,2710 1330,1060 2000,2630 2000,4710 0,2350 -890,4190 -2660,5520 -1770,1340 -4140,2010 -7100,2010zm33250 -18070c360,1560 540,3370 540,5420 0,1760 -150,3460 -440,5120 -1010,5050 -3620,7570 -7820,7570 -1130,0 -2110,-150 -2930,-460 -810,-310 -1530,-840 -2140,-1590 -70,-90 -130,-130 -200,-90 -60,30 -100,90 -100,190l0 10060c0,160 -50,300 -170,410 -110,120 -250,180 -410,180l-5720 0c-160,0 -300,-60 -410,-180 -120,-110 -170,-250 -170,-410l0 -33010c0,-160 50,-300 170,-420 110,-110 250,-170 410,-170l5720 0c160,0 300,60 410,170 120,120 170,260 170,420l0 1030c0,90 40,160 100,190 70,30 130,0 200,-100 1200,-1400 2930,-2100 5170,-2100 4010,0 6550,2590 7620,7770zm-6840 9570c300,-950 440,-2390 440,-4350 0,-1660 -110,-3060 -340,-4200 -490,-1920 -1500,-2880 -3030,-2880 -1530,0 -2500,950 -2930,2830 -220,950 -340,2360 -340,4250 0,1890 130,3320 390,4300 170,850 490,1510 980,1980 490,470 1110,710 1850,710 1470,0 2460,-880 2980,-2640zm23980 -12360c0,170 -60,310 -170,420 -120,110 -250,170 -420,170l-3760 0c-160,0 -240,80 -240,240l0 10890c0,1010 200,1740 610,2180 410,440 1030,640 1880,610l980 0c160,0 300,50 410,170 120,110 170,250 170,410l0 4740c0,390 -190,590 -580,590 -560,30 -1370,40 -2450,40 -2570,0 -4480,-420 -5730,-1270 -1260,-840 -1880,-2440 -1880,-4780l0 -13580c0,-160 -80,-240 -250,-240l-2240 0c-170,0 -300,-60 -420,-170 -110,-110 -170,-250 -170,-420l0 -4000c0,-160 60,-300 170,-420 120,-110 250,-170 420,-170l2240 0c170,0 250,-80 250,-240l0 -5620c0,-160 50,-300 170,-410 110,-110 250,-170 410,-170l5420 0c170,0 300,60 420,170 110,110 170,250 170,410l0 5620c0,160 80,240 240,240l3760 0c170,0 300,60 420,170 110,120 170,260 170,420l0 4000zm-9890 -42900l8750 8130 -8750 8120 -8750 -8120 8750 -8130zm-40000 0l8750 8130 -8750 8120 -8750 -8120 8750 -8130z"/>
 </g>
</svg>
